<svg xmlns="http://www.w3.org/2000/svg" width="150" height="150"><path fill="#FFE3B2" d="M3.3 8.1c.3-.6.4-1.2.3-1.9-.1-.6-.3-1.2-.7-1.7-.5-.5-1.1-.9-1.8-1.1-.4-.1-.7-.1-1.1 0v.9c.1 0 .2.1.3.1.5.2 1 .6 1.4 1 .3.4.6.8.8 1.2.2.4.3.8.2 1.2 0 .4-.3.8-.7 1.1-.3.3-.8.4-1.2.4C.5 9.2.2 9.1 0 9v1.1c.5 0 1.1-.1 1.5-.3.8-.3 1.4-1 1.8-1.7zM20.4 1.5c.8-.2 1.6-.6 2.2-1.1L23 0h-.8c-.3.3-.7.5-1.1.6-.6.2-1.3.1-1.9-.1-.5-.1-.9-.3-1.2-.5h-3.5c1.6 1.4 3.8 2 5.9 1.5zM1.6 14.3C1.1 14.9.5 15.4 0 16v.7l3.8-3.8c.7 1.4 1.1 2.9 1.4 4.4l1.7-1.7c-.4-1.7-.8-3.4-1.6-4.9l-1.7 1.7c-1.2-.2-2.4-.4-3.6-.7v2.1c.5.2 1.1.3 1.6.5zM0 20.5v1.9l1.7-1.7c-.5 0-1.1-.1-1.7-.2zM.9 2.5l1-1c3.1 3.1 6.2 6.2 9.3 9.2l-1 1 .3.3L14 8.5l-.3-.3-1.1 1.1-7-7c.1-.5.2-1.1.5-1.6.3-.3.5-.5.8-.7H5.8c-.4.5-.6 1.1-.7 1.7C4.6 1.1 4 .6 3.5 0h-.6C2.1.7 1.4 1.5.7 2.2c.1.1.1.2.2.3zM15.4 6.5l-1.1 1.1c.1.1.2.2.2.3L18 4.4l-.2-.2-.8.8L12.1.1H8.9c2.2 2.1 4.4 4.3 6.5 6.4zM130.4 15.9l-6.7-6.7c1.2-.1 2.5-.5 3.5-1.3.9-.7 1.6-1.7 1.9-2.8.2-.7.2-1.5-.1-2.1-.2-.5-.6-.9-1.1-1.1-.6-.2-1.2-.2-1.8 0-.8.3-1.6.7-2.3 1.3-.2.1-.4.3-.6.5-.9.9-1.6 2-1.8 3.3-.2 1.5.4 3.1 1.4 4.2l6.1 6.1-.9.9.2.2 3.5-3.5-.2-.2c-.3.5-.7.8-1.1 1.2zm-7.9-9.3c0-.7.3-1.4.7-1.9.4-.5.9-.9 1.4-1.3.5-.4 1.2-.7 1.8-.7.7 0 1.3.4 1.6.9.3.4.4.9.3 1.4-.1.7-.5 1.3-1 1.9-.5.6-1.1 1-1.8 1.2-.5.2-1.1.4-1.6.4-.3 0-.7-.1-.9-.3-.3-.5-.5-1.1-.5-1.6z"/><path fill="#FFE3B2" d="M126 1.2l.3.3.8-.8c.6.3 1.3.5 1.9.8.5.2.8.5 1.1 1 .4.6.5 1.3.7 2 .1.6.2 1.3.3 1.9.1.7.1 1.5.2 2.2.1.5.3 1 .5 1.4.3.6.8 1.2 1.4 1.6.5.3 1 .4 1.6.3.7-.2 1.4-.6 1.8-1.2.6-.8.9-1.8.8-2.8-.1-1-.2-1.9-.4-2.9 1.1.5 2.1.9 3.2 1.4l-1.1 1.1c.1.1.2.2.3.2l3.3-3.3-.3-.3-.7.7c-3.6-1.6-7.2-3.2-10.9-4.7h-3.6c-.5.3-.9.7-1.2 1.1zm10 3.4c.2.5.4 1.1.4 1.7.1.8 0 1.5-.4 2.2-.3.5-.8.9-1.3 1.2-.4.2-.8.2-1.2.1-.6-.3-1-.8-1.3-1.4-.3-.7-.5-1.4-.6-2.1 0-.6-.2-1.2-.3-1.7-.2-.8-.4-1.5-.6-2.3 1.8.7 3.6 1.5 5.3 2.3zM138.1 2.2c1.7.6 3.5 1 5.3 1.2l1.8-1.8c-1.7-.1-3.3-.4-4.9-.9l.7-.7h-1.3c0 .2 0 .4.1.6-.6.5-1.1 1.1-1.7 1.6zM149.2 8.4c-.6-.5-1.1-1.1-1.3-1.8-.2-.5-.1-1 .2-1.5.2-.4.6-.7 1.1-.8.3-.1.6-.1.9 0v-.9c-.2 0-.5.1-.7.2-.7.3-1.3.8-1.8 1.4-.4.6-.7 1.3-.7 2.1 0 1.4 1.1 2.6 2.4 3 .3.1.5.1.8.1V9c-.4-.2-.7-.4-.9-.6zM136.8 35.1l-6.7-6.7c.9-.1 1.7-.3 2.5-.7.8-.4 1.6-1 2.1-1.8.5-.7.8-1.6.8-2.4 0-.7-.1-1.3-.6-1.8-.3-.4-.8-.6-1.3-.7-.7-.1-1.4.2-2 .5-1.2.6-2.3 1.5-3 2.7-.6.9-.9 2-.8 3.1.1 1.2.6 2.3 1.4 3.2l6.1 6.1-.9.9c.1.1.2.2.2.3l3.5-3.5c-.1-.1-.2-.2-.3-.2-.2.3-.6.7-1 1zm-7.3-7.7c-.4-.4-.5-1-.5-1.6 0-.7.3-1.3.7-1.8.4-.5.8-.9 1.4-1.3.5-.4 1.2-.7 1.9-.7s1.3.4 1.6.9c.3.4.4 1 .3 1.5-.2.8-.6 1.4-1.2 2-.6.6-1.3.9-2.1 1.2-.5.1-.9.2-1.4.2-.4-.2-.6-.3-.7-.4z"/><path fill="#FFE3B2" d="M148 24c-4.3-1.9-8.7-3.8-13-5.6l1.1-1.1-.3-.3c-1.1 1.2-2.3 2.3-3.4 3.4l.3.3.8-.8c.6.3 1.3.5 1.9.8.5.2.9.7 1.2 1.1.3.7.5 1.4.6 2.1.1.7.2 1.5.3 2.2.1.7.1 1.4.3 2.1.2.7.6 1.4 1.1 1.9.4.4.9.7 1.5.8.7.1 1.3-.2 1.9-.6.8-.6 1.3-1.5 1.4-2.5.1-.6 0-1.2 0-1.8l-.3-2.1c1.1.5 2.1.9 3.2 1.4l-1.1 1.1c.1.1.2.2.3.2l3.3-3.3c-.1-.1-.2-.2-.2-.3-.4.5-.7.7-.9 1zm-5.5 3.7c-.3.5-.8.9-1.3 1.1-.4.2-.8.2-1.2.1-.5-.2-.9-.6-1.2-1-.4-.6-.6-1.3-.8-2.1-.1-.4-.1-.8-.2-1.2-.2-1.1-.5-2.2-.8-3.3 1.8.8 3.5 1.6 5.3 2.3.2.5.4 1.1.4 1.7.3 1 .2 1.8-.2 2.4z"/><path fill="#FFE3B2" d="M146.8 19.1c-.4-2.4-1.2-4.8-2.2-7.1 1.7.9 3.5 1.4 5.4 1.9v-2.1c-.6-.1-1.1-.3-1.6-.5-1.5-.5-2.9-1.2-4.1-2.1l1.2-1.2-.3-.3-6.7 6.7c-.4.7-.7 1.5-.4 2.3.2.5.6.9 1 1.1.6.3 1.4.2 2-.2.6-.3 1-.9 1.2-1.6v-.8c0-.3-.2-.5-.4-.7-.3-.2-.6-.1-.9 0-.4.2-.7.7-.7 1.2 0 .2.1.5.4.6.3.1.6.1.9 0 .1 0 .1 0 .1.1-.2.3-.4.7-.7.9-.3.2-.8.3-1.1.2-.7-.1-1.3-.7-1.4-1.5-.1-.6.2-1.1.6-1.5l3.7-3.7c1.2 1.4 2.1 3 2.7 4.7.5 1.4.7 2.8.8 4.3v.1l-1.6 1.6c1.7.6 3.5 1 5.3 1.2l.1-.1v-1.9c-1.1-.1-2.2-.4-3.2-.7l3.2-3.2v-.7c-1.2.9-2.2 1.9-3.3 3zM126.1 36.2l1.8 1.8c.1-1.7.3-3.5.4-5.2l-1.8-1.8c-.2 1.7-.3 3.4-.4 5.2zM129.3 33.8c-.1 1.7-.3 3.5-.4 5.2l1.8 1.8c.1-1.7.3-3.4.4-5.1v-.2c-.6-.5-1.2-1.1-1.8-1.7zM0 144.4v2.4l.5-.5c-.2-.6-.3-1.3-.5-1.9zM11.9 122.5c-1.2-.8-2.6-1.4-4-1.3-.8 0-1.5.3-2.2.6-.8.4-1.5 1.1-2.1 1.7-.5.6-.9 1.4-1.1 2.2-.2.7-.2 1.5-.1 2.2.3 1.5 1.1 2.8 2.1 3.9 1.1 1.2 2.6 2.2 4.3 2.6 1.3.3 2.7.2 3.9-.5 1.5-.8 2.6-2.2 3-3.9.3-1.3.1-2.6-.5-3.8-.7-1.4-1.9-2.7-3.3-3.7zm2.2 9.7c-.5.6-1.1 1.1-1.9 1.3-.6.2-1.2.1-1.8 0-.8-.2-1.5-.7-2.2-1.2-.9-.7-1.6-1.4-2.4-2.2-.7-.7-1.4-1.5-1.8-2.4-.3-.6-.6-1.4-.5-2.1 0-.7.3-1.3.8-1.8.5-.6 1.1-1.1 1.9-1.4.6-.2 1.3-.2 1.9 0 .8.2 1.5.7 2.1 1.2.8.6 1.5 1.3 2.2 2 .7.8 1.5 1.6 2 2.6.4.7.6 1.4.6 2.2-.2.6-.5 1.3-.9 1.8zM1.6 144.7l.3.3 3.7-3.7-.3-.3-1.1 1.1-.9-.9c.5-.8.8-1.6 1-2.5.1-.6.1-1.3 0-1.9.9.9 1.8 1.8 2.7 2.6l-1.1 1.1.3.3 3.5-3.5-.3-.3-.8.8-8.5-8.5v3.2l3.2 3.2v.1c0 .3.1.5.1.8.1 1.3-.1 2.7-.8 3.9-.8-.9-1.7-1.7-2.5-2.6v3l2.6 2.6c-.4.5-.8.8-1.1 1.2zM16.9 149.3c-.7-.6-1.4-1.2-2-1.9l6.3-6.3-.5-.5-6.2 6.2c-.9-1-1.8-2.1-2.1-3.4-.2-.8-.2-1.6.1-2.4.2-.6.7-1.1 1.3-1.5.6-.4 1.4-.6 2.1-.5.8 0 1.6.3 2.3.7l1.2.9.7-.7c-.9-.7-2-1.3-3.2-1.5-.7-.1-1.5-.1-2.2.1-.8.3-1.6.8-2.2 1.4-.6.6-.9 1.4-1.1 2.1-.3 1.2-.3 2.4.1 3.6.3.9.9 1.8 1.5 2.5.5.6 1 1.2 1.6 1.7H18c-.4 0-.8-.2-1.1-.5zM23.4 149.5c.6-.9.9-1.9.8-3-.1-.8-.3-1.5-.6-2.2-.4-.9-1-1.7-1.6-2.4l-.7.7c.7.7 1.3 1.5 1.8 2.4.3.7.5 1.4.5 2.2 0 .7-.2 1.5-.6 2.1-.2.3-.5.5-.7.8h.7c.1-.3.3-.4.4-.6zM8.5 144.9l-.3-.3-3.5 3.5.3.3 1.1-1.1 1.7 1.7c-.7.1-1.3.3-1.8.8-.1.1-.1.2-.2.2h1.1c.1 0 .1-.1.2-.1.4-.2.9-.3 1.4-.4l.5.5h3.2l-4.4-4.4.7-.7zM3.4 150l1.1-1.1-.3-.3-1.4 1.4h.6z"/><path fill="#FFE3B2" d="M37.5 134.5c-.4-.3-.9-.6-1.3-.8-1.2-.6-2.5-.8-3.8-.6-1.6.3-3 1.2-4.2 2.3l-1.6-1.6c1-1.3 1.9-2.8 2.2-4.4.3-1.4.1-2.8-.5-4.1l.6-.6-.3-.3-3.1 3.1.3.3.5-.5c.4.5.8 1.1 1 1.7.2.7.3 1.4.2 2.1-.2.9-.6 1.7-1.2 2.3l-3-3 .7-.7-.3-.3-2.9 2.9.3.3.7-.7 3 3c-.9.5-1.9.9-3 .8-1-.1-1.9-.5-2.7-1.2.3-.3.6-.6.8-.9l-.3-.3-3.3 3.3.3.3.8-.8c.9.6 2 1 3.1.9.9 0 1.7-.3 2.4-.6.8-.3 1.5-.8 2.1-1.3l1.6 1.6c-.5.9-1 1.9-1.3 2.9-.3 1.1-.3 2.3 0 3.4.2.8.7 1.6 1.2 2.2l-.8.8.3.3 3.3-3.3-.3-.3-.8.8c-.7-.6-1.3-1.3-1.6-2.2-.2-.6-.3-1.3-.3-2 .1-.8.3-1.6.6-2.3l3.8 3.8-.7.7.3.3 2.9-2.9-.3-.3-.7.7-3.8-3.8c.8-.7 1.8-1.3 2.8-1.4.7-.1 1.5.1 2.1.4.8.4 1.6.9 2.3 1.5l-.8.8.3.3 3.1-3.1-.3-.3c0 .4-.2.6-.4.8zM31.5 127l1.8 1.8c.1-1.7.3-3.5.4-5.2l-1.8-1.8c-.1 1.8-.3 3.5-.4 5.2zM34.4 129.7v.2l1.7 1.7c.1-1.7.3-3.5.4-5.2l-1.8-1.8c-.1 1.8-.2 3.4-.3 5.1zM129.7 148l-.3-.3-2.3 2.3h3.6l-2.1-.9 1.1-1.1zM147.4 143.6c.7 1.4 1.1 2.9 1.4 4.4l1.2-1.2v-2.4c-.3-1-.6-2-1.1-3l-1.7 1.7c-1.8-.2-3.6-.5-5.4-1.1-1.4-.5-2.8-1.2-4-2.1l1.2-1.2-.3-.3-6.7 6.7c-.4.7-.6 1.5-.4 2.3.2.5.5.9 1 1.1.7.3 1.5.2 2.1-.2.5-.3.9-.8 1.1-1.4.1-.2.1-.4.1-.6 0-.3-.1-.7-.3-1-.2-.2-.6-.2-.9-.1-.5.2-.9.8-.8 1.3 0 .2.2.5.4.5.3.1.6 0 .8-.1 0 0 0 .1.1.1-.2.4-.5.8-.9 1-.3.2-.7.2-1 .1-.7-.2-1.3-.7-1.3-1.4-.1-.6.2-1.1.6-1.5l3.7-3.7c1.2 1.4 2.1 3 2.7 4.7.4 1.2.6 2.5.8 3.8h1.3c2-2.1 4.2-4.2 6.3-6.4zm-8.9 0c-.1-.2-.2-.5-.3-.7 2.2 1.1 4.6 1.7 7 2.2l-4.8 4.8c-.4-2.2-1-4.3-1.9-6.3zM144.9 132.9l1.1-1.1-.3-.3-3.6 3.6.3.3 1-1 6.6 6.6v-3l-5.1-5.1zM150 127.8l-.3-.3-3.5 3.5.3.3 1.1-1.1 2.4 2.4v-3.2l-.8-.8c.3-.3.5-.6.8-.8z"/><g fill="#FFE3B2"><path d="M71.889 49.261l-.495-.495-.071-.07c-.848-.849-1.98-1.556-3.253-1.697-1.485-.213-3.04.353-4.172 1.343l-6.01 6.01-.849-.848-.212.212 3.394 3.394.213-.212-1.132-1.131 6.576-6.576c.142 1.272.495 2.474 1.273 3.394.637.919 1.626 1.626 2.687 1.838.707.142 1.414.142 2.121-.141.566-.142.99-.566 1.132-.99.212-.637.141-1.273 0-1.839-.212-.777-.778-1.485-1.202-2.192zm-.425 4.102c-.424.282-.919.353-1.414.282-.636-.07-1.273-.424-1.768-.919-.565-.424-.919-1.06-1.202-1.768a4.195 4.195 0 0 1-.353-1.626c0-.283.07-.636.283-.849.424-.424.99-.565 1.626-.494.566 0 1.273.282 1.839.707.494.353.848.848 1.202 1.343.353.495.707 1.132.636 1.768.07.636-.354 1.202-.849 1.556z"/><path d="M73.586 51.665l.778.778c-.213.637-.566 1.273-.778 1.91-.212.353-.566.707-.99.99-.637.353-1.273.565-1.91.636l-1.909.212c-.777.07-1.484.07-2.192.212a3.79 3.79 0 0 0-1.343.495c-.636.354-1.202.778-1.556 1.414-.283.425-.353 1.06-.283 1.556.142.707.637 1.343 1.203 1.768.777.636 1.767.919 2.757.777.92-.07 1.91-.212 2.829-.424-.495 1.06-.92 2.05-1.344 3.182l-1.06-1.06-.213.212 3.253 3.252.212-.212-.636-.636 5.515-12.728 1.06 1.06c.072-.07.213-.212.284-.282l-3.394-3.394-.283.282zm-3.111 9.617a5.968 5.968 0 0 1-1.698.424c-.777.071-1.555 0-2.192-.353-.565-.283-.919-.778-1.13-1.273-.213-.354-.213-.778-.072-1.202a3.083 3.083 0 0 1 1.344-1.344c.636-.353 1.343-.495 2.121-.565.566 0 1.132-.142 1.697-.283.778-.212 1.485-.354 2.263-.566-.778 1.627-1.556 3.394-2.333 5.162z"/><path d="M77.546 56.898c-.425.141-.849.566-.99.99-.283.707-.212 1.485.212 2.05A3.21 3.21 0 0 0 78.11 61c.071.212.283.142.495.212.283 0 .707 0 .92-.353a.752.752 0 0 0 .14-.849c-.211-.495-.777-.919-1.272-.848-.212.07-.495.212-.566.424-.07.212 0 .566.071.778l-.07.07c-.354-.212-.778-.494-.99-.848a1.555 1.555 0 0 1-.142-.99c.141-.707.707-1.273 1.414-1.273.495-.07 1.06.212 1.485.495l3.677 3.677c-1.343 1.202-2.899 2.05-4.596 2.617-1.414.424-2.828.707-4.313.777l-1.556-1.555c-.566 1.697-.99 3.394-1.131 5.232l1.767 1.768c.071-1.626.354-3.323.849-4.808l6.93 6.93c-1.344.777-2.829 1.13-4.314 1.343l1.627 1.626c1.626-.353 3.323-.778 4.808-1.555l-1.697-1.697a22.053 22.053 0 0 1 1.06-5.304c.495-1.343 1.273-2.687 2.192-3.889l1.203 1.202.282-.283-6.576-6.576c-.707-.424-1.485-.636-2.262-.424zm2.333 13.364l-4.738-4.737c2.122-.424 4.243-.99 6.294-1.91.07-.07.353-.212.565-.282-1.06 2.192-1.626 4.596-2.121 6.93zM100.95 78.606c-.636-.495-1.343-.919-2.12-1.131-.708-.142-1.485-.212-2.193-.07-1.414.282-2.757 1.06-3.818 2.12-1.273 1.132-2.192 2.617-2.616 4.172-.283 1.273-.142 2.687.424 3.819.778 1.485 2.192 2.616 3.818 2.97 1.273.282 2.546 0 3.677-.425 1.556-.707 2.829-1.838 3.819-3.252.848-1.132 1.343-2.475 1.273-3.96-.071-.778-.283-1.556-.637-2.192-.283-.849-.92-1.485-1.626-2.05zm1.203 4.172c-.212.778-.636 1.485-1.131 2.121-.637.778-1.344 1.485-1.98 2.122-.778.778-1.556 1.414-2.546 1.98-.636.353-1.343.636-2.121.565-.707 0-1.344-.353-1.839-.707-.636-.495-1.131-1.131-1.273-1.838-.141-.566-.141-1.273.071-1.768.212-.778.637-1.485 1.132-2.121.636-.778 1.343-1.627 2.192-2.334.707-.707 1.484-1.343 2.404-1.838.636-.354 1.343-.637 2.121-.566.495.07 1.131.283 1.626.778a4.454 4.454 0 0 1 1.415 1.838c.141.566.07 1.202-.071 1.768z"/><path d="M93.455 71.535l1.061 1.06c-1.838 1.84-3.677 3.678-5.515 5.516-.071.071-.071.071-.142 0-.212.071-.495.071-.778.071-1.343.07-2.616-.07-3.818-.707l7.566-7.566 1.06 1.06c.072-.07.213-.212.284-.282l-3.536-3.536-.283.283.99.99-9.121 9.122-1.061-1.061-.283.283 3.606 3.606.283-.283-1.06-1.06.919-.92c.778.495 1.626.778 2.545.99.637.07 1.273.142 1.839 0l-2.617 2.617-1.06-1.061-.283.283 3.394 3.394.283-.283-.778-.778 9.122-9.122.778.778.282-.283-3.394-3.394-.283.283zM70.121 72.525c-.566-.424-1.273-.707-2.05-.636-1.344.07-2.617 1.06-2.9 2.333-.212.778-.141 1.556.212 2.334.354.777.99 1.414 1.697 1.697.566.283 1.202.353 1.839.283.636-.071 1.202-.354 1.697-.708.495-.495.92-1.06 1.06-1.767a2.586 2.586 0 0 0-.212-1.768 4.22 4.22 0 0 0-1.343-1.768zm.495 2.758c-.212.495-.636.92-.99 1.273-.354.353-.778.636-1.131.848-.354.212-.778.354-1.202.212-.495-.07-.778-.353-1.132-.707-.283-.283-.424-.848-.353-1.202.07-.636.424-1.131.848-1.556.495-.495 1.06-1.06 1.839-1.272.424-.142.99-.142 1.414.141.353.212.636.636.778 1.06.212.354.141.85-.071 1.203zM84.829 87.233c-.566-.566-1.344-.92-2.122-1.131a6.948 6.948 0 0 0-3.606.07c-.919.212-1.697.849-2.475 1.485-.636.495-1.272.99-1.767 1.627-1.273 1.555-1.91 3.747-1.415 5.798.212.778.566 1.555 1.061 2.192.212.353.566.566.92.778.777.636 1.908.919 2.97.848.777-.07 1.413-.283 2.12-.565.849-.425 1.697-.99 2.334-1.627l-.707-.707c-.707.707-1.414 1.273-2.334 1.768-.707.283-1.414.566-2.192.495-.707 0-1.485-.212-2.05-.637-.566-.424-1.132-1.131-1.344-1.767-.212-.637-.141-1.273.07-1.91.213-.777.708-1.555 1.203-2.192.566-.707 1.202-1.343 1.838-1.98l6.152 6.152.425-.424-6.152-6.152c.919-.919 2.05-1.767 3.323-2.05.778-.212 1.626-.212 2.334.07.636.213 1.13.707 1.414 1.273.353.637.565 1.273.495 2.05-.071.779-.283 1.556-.637 2.193-.282.424-.565.848-.919 1.202l.637.636c.636-.919 1.272-1.98 1.484-3.182.142-.707.071-1.485-.07-2.192.141-.848-.425-1.555-.99-2.121zM51.241 54.07a4.953 4.953 0 0 0-3.111-.849c-1.202.07-2.263.566-3.111 1.414l-6.01 6.01-.85-.848-.211.212 3.394 3.394.212-.212-1.132-1.131L47 55.484c.141.848.282 1.697.707 2.545.424.849.99 1.556 1.767 2.051.637.495 1.556.849 2.405.849.636.07 1.272-.142 1.838-.566.354-.354.636-.778.636-1.344.071-.636-.212-1.343-.424-1.98-.636-1.202-1.555-2.262-2.687-2.97zm1.273 5.656c-.424.283-.99.425-1.485.213-.778-.213-1.343-.637-1.98-1.132-.566-.565-.92-1.343-1.202-2.05a3.126 3.126 0 0 1-.141-1.415c.07-.212.141-.424.283-.565.494-.354 1.06-.495 1.626-.495.707 0 1.273.283 1.768.636.495.354.919.778 1.272 1.273.354.495.708 1.131.708 1.838.07.778-.354 1.344-.849 1.697z"/><path d="M54.989 57.676l-.283.283.778.778c-.212.636-.566 1.272-.778 1.909-.212.495-.636.919-1.131 1.131-.637.354-1.344.495-2.122.566-.707.141-1.485.212-2.192.212-.636.07-1.343.07-1.98.283-.707.283-1.414.565-1.909 1.06-.424.425-.778.92-.778 1.485-.07.637.213 1.344.566 1.839.566.707 1.485 1.202 2.404 1.414.566.141 1.132 0 1.697 0 .637-.07 1.415-.141 2.05-.354-.494 1.061-.918 2.051-1.343 3.182l-1.06-1.06-.212.212 3.252 3.253.212-.213-.636-.636 5.515-12.728 1.061 1.06.283-.282-3.394-3.394zm-3.394 9.9a5.968 5.968 0 0 1-1.697.424c-.778.07-1.556 0-2.192-.354-.495-.212-.849-.707-1.132-1.273-.212-.353-.212-.778-.07-1.202.212-.495.565-.848.99-1.131.565-.424 1.343-.637 2.05-.778.354-.07.778-.07 1.132-.141a41.853 41.853 0 0 0 3.182-.778c-.778 1.768-1.485 3.465-2.263 5.232z"/><path d="M58.666 63.333c-.495.212-.849.565-.99.99-.212.636-.212 1.343.141 1.98.283.565.849.99 1.485 1.202.283 0 .495.07.778-.071a.778.778 0 0 0 .707-.424.902.902 0 0 0 0-.849c-.212-.495-.707-.707-1.131-.707-.283 0-.424.141-.495.354-.142.282 0 .565 0 .848.07.07-.07.07-.07.07-.354-.211-.708-.423-.85-.706-.212-.354-.282-.707-.212-1.06a1.655 1.655 0 0 1 1.485-1.344c.495-.071 1.061.212 1.485.636l3.607 3.606c-1.344 1.202-2.9 2.05-4.597 2.617-1.343.494-2.828.707-4.242.848h-.142l-1.555-1.556c-.566 1.697-.99 3.395-1.132 5.233l1.768 1.768c.07-1.627.354-3.324.849-4.809l6.93 6.93c-1.344.778-2.83 1.131-4.314 1.344l1.626 1.626c1.627-.354 3.324-.778 4.809-1.556l-1.698-1.697c.142-1.697.425-3.535.99-5.232.495-1.485 1.132-2.829 2.122-4.102l1.202 1.203.283-.283-6.576-6.576c-.637-.354-1.485-.637-2.263-.283zm2.333 13.223l-4.737-4.738c2.404-.424 4.737-1.202 7-2.192-1.131 2.263-1.768 4.596-2.263 6.93zM76.626 80.02l1.061 1.061-1.697 1.697c-.07-.636-.354-1.343-.778-1.768-.495-.495-1.202-.777-1.91-.919L75 78.394l1.06 1.06.284-.282-3.536-3.536-.283.283.99.99-9.122 9.122-.99-.99c-.07.07-.212.212-.212.353l3.465 3.465.283-.283-1.06-1.06 6.858-6.86c.566.142 1.06.213 1.627.496.353.212.636.495.707.848.141.425.283.849.353 1.344l-6.859 6.859-1.06-1.06-.212.211c1.13 1.132 2.262 2.263 3.394 3.394l.212-.212-.778-.778 9.122-9.121.777.778.283-.283-3.394-3.394-.283.282zM96.779 100.314l.495.495c-.495.354-1.06.778-1.697.99-.637.212-1.414.283-1.98.142-.849-.142-1.626-.637-2.334-1.202l2.97-2.97.707.707.283-.283-2.828-2.828-.283.283.636.636-2.97 2.97c-.494-.92-.919-1.91-.848-2.97.07-.92.495-1.91 1.202-2.616l.849.848.282-.283-3.252-3.252-.283.282.778.778c-.637.92-.99 1.98-.92 3.04 0 .85.283 1.698.566 2.405.354.778.778 1.485 1.273 2.121l-1.556 1.556c-.919-.495-1.838-.99-2.828-1.273a6.894 6.894 0 0 0-3.394 0c-.778.212-1.485.637-2.192 1.202l-.778-.778-.283.283 3.253 3.253.283-.283-.849-.848c.637-.637 1.344-1.202 2.121-1.556.637-.212 1.273-.283 1.98-.283.778.07 1.556.283 2.334.637l-3.748 3.747-.636-.636-.283.283 2.828 2.828.283-.283-.707-.707 3.748-3.748c.707.708 1.273 1.697 1.343 2.758 0 .707-.07 1.485-.353 2.05a10.957 10.957 0 0 1-1.415 2.263l-.777-.777-.283.283 3.04 3.04.283-.283-.565-.565c.282-.425.565-.849.777-1.344.566-1.131.778-2.475.566-3.677-.283-1.556-1.131-2.97-2.263-4.101l1.556-1.556c1.273.99 2.758 1.91 4.313 2.192 1.344.212 2.758.071 4.03-.495l.566.566.283-.283-3.04-3.04-.283.282zM95.86 107.739l5.09.424 1.698-1.697-5.091-.424-1.697 1.697zM37.735 53.15l5.092.425 1.767-1.768-5.09-.424-1.769 1.767zM94.799 108.8l-1.697 1.697 5.091.424 1.697-1.697c-1.697-.141-3.323-.212-4.95-.424-.07-.071-.141 0-.141 0zM34.907 55.979c1.697.141 3.323.212 4.95.424h.141l1.697-1.697-5.09-.424-1.698 1.697z"/></g></svg>