<svg xmlns="http://www.w3.org/2000/svg"
         width="40"
         height="24"
         viewBox="0 0 211.6 126.64" >
    <path
            d="M105.8,110.27a63.3,63.3 0,0 0,0 -93.89A62.75,62.75 0,0 0,63.38 0a63.32,63.32 0,1 0,0 126.64,62.75 62.75,0 0,0 42.42,-16.37Z"
            fill="#559fdb"/>
    <path
            d="M105.8,110.27a63.3,63.3 0,0 0,0 -93.89v93.89Z"
            fill="#559fdb"/>
    <path
            d="M148.34,0A63.3,63.3 0,0 0,105.8 16.37a80.68,80.68 0,0 0,-6.33 6.7h12.77c1.74,2.11 3.35,4.47 4.84,6.7H94.64q-2,3.35 -3.72,6.7h29.77c1,2.23 2,4.47 2.73,6.7H88.31A61.51,61.51 0,0 0,86.45 50h38.82a67.2,67.2 0,0 1,1.36 13.4,63.75 63.75,0 0,1 -3.22,20.09H88.31q1.12,3.35 2.61,6.7h29.77a69.44,69.44 0,0 1,-3.6 6.7H94.64a65.4,65.4 0,0 0,4.84 6.7h12.77a65.4,65.4 0,0 1,-6.45 6.7A63.32,63.32 0,1 0,148.34 0Z"
            fill="#d24a48"/>
    <path
            d="M203.54,98.61a2,2 0,0 1,4 0,2 2,0 1,1 -4,0ZM205.54,100.22a1.64,1.64 0,0 0,1.61 -1.61,1.62 1.62,0 0,0 -3.22,0 1.64,1.64 0,0 0,1.62 1.61ZM205.29,99.48h-0.5L204.79,97.74h0.75c0.25,0 0.37,0 0.5,0.12s0.25,0.25 0.25,0.37a0.65,0.65 0,0 1,-0.25 0.5l0.25,0.74h-0.49l-0.25,-0.62h-0.25v0.62ZM205.29,98.48h0.5a0.44,0.44 0,0 0,0.12 -0.25l-0.12,-0.12a0.39,0.39 0,0 0,-0.25 -0.12h-0.25v0.5Z"
            fill="#d24a48"/>
    <path
            d="M53.46,80.99l-7.94,0l4.71,-24.68l-10.79,24.68l-6.7,0l-1.36,-24.55l-5.21,24.55l-7.19,0l6.07,-32.12l12.53,0l0.13,19.85l8.68,-19.85l13.27,0l-6.2,32.12l0,0z"
            fill="#2f3c6a"/>
    <path
            d="M141.52,80.62a19.93,19.93 0,0 1,-5.71 0.87c-4,0 -6.2,-2 -6.2,-5.7a15.08,15.08 0,0 1,0.25 -2.36l0.49,-2.6 0.37,-2 3.6,-20h7.81l-1.12,6h4l-1,6.33h-4.09L137.8,72.06c0,0.5 -0.12,0.87 -0.12,1.12 0,1.36 0.87,1.86 2.73,1.86a5.13,5.13 0,0 0,2.11 -0.25l-1,5.83Z"
            fill="#2f3c6a"/>
    <path
            d="M110.27,63.13c0,3.22 1.86,5.58 6,7.19 3.35,1.36 3.85,1.74 3.85,3 0,1.61 -1.49,2.36 -4.59,2.36a24.77,24.77 0,0 1,-7.19 -1.12l-1.12,6.08h0.37l1.49,0.25a8.07,8.07 0,0 0,2.11 0.25c1.86,0.13 3.35,0.25 4.34,0.25 8.43,0 12.28,-2.73 12.28,-8.68 0,-3.6 -1.61,-5.7 -5.58,-7.32 -3.35,-1.24 -3.72,-1.61 -3.72,-2.85s1.37,-2.11 3.84,-2.11a52.46,52.46 0,0 1,5.83 0.37l1.11,-6a48.11,48.11 0,0 0,-7.07 -0.62c-8.93,0 -12,4.09 -11.91,8.93Z"
            fill="#2f3c6a"/>
    <path
            d="M79,81H72.44l0.12,-2.73c-2,2.11 -4.71,3.1 -8.31,3.1a6.8,6.8 0,0 1,-7.19 -7.07c0,-6.33 5.09,-10 13.89,-10a31.43,31.43 0,0 1,3.23 0.12,5 5,0 0,0 0.25,-1.61c0,-1.74 -1.36,-2.48 -5.08,-2.48a33,33 0,0 0,-6.45 0.74l-1.12,0.37 -0.74,0.12 1.12,-5.83a32.56,32.56 0,0 1,9.43 -1.49C78.39,54.2 82,56.93 82,61.89a22.59,22.59 0,0 1,-0.74 5.21l-1.61,9.18L79.38,78l-0.25,1.36 -0.12,0.87V81ZM73.68,69.33a10.72,10.72 0,0 0,-1.86 -0.12c-4.46,0 -6.7,1.36 -6.7,4A2.55,2.55 0,0 0,68 75.78c3.22,0 5.58,-2.6 5.71,-6.45Z"
            fill="#2f3c6a"/>
    <path
            d="M104.81,80.37a28.77,28.77 0,0 1,-8.06 1.12c-8.81,0 -13.4,-4.09 -13.4,-11.78 0,-8.93 5.83,-15.5 13.77,-15.5 6.57,0 10.67,3.72 10.67,9.43a22.16,22.16 0,0 1,-1 6.45L91.16,70.09a2.8,2.8 0,0 0,-0.12 0.87c0,3 2.36,4.59 6.95,4.59a19.44,19.44 0,0 0,8.19 -1.74l-1.36,6.57ZM101.09,64.87L101.09,63.5c0,-2.11 -1.36,-3.35 -3.72,-3.35S93,61.77 92.28,64.87Z"
            fill="#2f3c6a"/>
    <path
            d="M188.9,69.09c-1.12,8.68 -7.19,12.53 -15.26,12.53 -8.93,0 -12.53,-5.33 -12.53,-12 0,-9.18 6.08,-15.5 15.5,-15.5 8.19,0 12.53,5.21 12.53,11.78a13.51,13.51 0,0 1,-0.25 3.22ZM181,66c0,-2.73 -1.12,-5.33 -4.34,-5.33 -4,0 -6.57,4.84 -6.57,8.93 0,3.6 1.74,6 4.59,6 1.74,0 5.33,-2.36 6.08,-6.45A22.92,22.92 0,0 0,181 66Z"
            fill="#2f3c6a"/>
    <path
            d="M189.77,77a2.07,2.07 0,0 1,2.11 -2,2 2,0 0,1 2,2 2.07,2.07 0,0 1,-2 2.11A2.18,2.18 0,0 1,189.77 77ZM191.88,78.61A1.54,1.54 0,0 0,193.37 77a1.43,1.43 0,0 0,-1.49 -1.49A1.54,1.54 0,0 0,190.27 77a1.64,1.64 0,0 0,1.61 1.61ZM191.63,77.87h-0.5L191.13,76.16h0.74c0.25,0 0.37,0 0.49,0.12s0.25,0.25 0.25,0.37 -0.12,0.5 -0.37,0.5l0.37,0.74h-0.5l-0.25,-0.62h-0.25v0.62ZM191.63,76.87h0.49v-0.37h-0.49v0.37Z"
            fill="#fff"/>
    <path
            d="M55.44,79.13l-7.93,0l4.71,-24.68l-10.79,24.68l-7.2,0l-1.24,-24.55l-4.71,24.55l-7.19,0l6.07,-32.12l12.41,0l0.62,19.84l8.68,-19.84l12.78,0l-6.21,32.12l0,0z"
            fill="#fff"/>
    <path
            d="M143.51,78.76a20,20 0,0 1,-5.7 0.87c-4,0 -6.2,-2 -6.2,-5.71a17.07,17.07 0,0 1,0.25 -2.36l0.5,-2.6 0.37,-2 3.6,-20h7.81L143,53h4.09L146,59.29h-4.1l-2,10.91a6.44,6.44 0,0 0,-0.25 1.12c0,1.36 0.87,2 2.73,2a8.83,8.83 0,0 0,2.11 -0.25l-1,5.71Z"
            fill="#fff"/>
    <path
            d="M163.72,60.53l-0.12,-0.87 1.49,-4.09c-0.37,0 -0.5,0 -0.62,-0.12a1.51,1.51 0,0 1,-0.62 -0.12h-0.74c-2.61,0 -4.47,1.12 -6.95,4.22l0.87,-4.71h-8.19L144,81h7.82c1.12,-6.08 1.61,-9.43 2.23,-12.28 1,-4.71 4.47,-6.82 7.07,-6.33a2.41,2.41 0,0 1,0.87 0.12l0.5,0.25 1.24,-2.23Z"
            fill="#2f3c6a"/>
    <path
            d="M166.45,53.21a2.14,2.14 0,0 0,-0.87 -0.25c-0.37,-0.12 -0.62,-0.12 -0.62,-0.25h-0.87c-2.6,0 -4.46,1.12 -6.82,4.22l0.74,-4h-7.2L146,79.13h7.94c2.85,-16 4,-18.85 7.81,-18.85 0.25,0 0.62,0.12 1,0.12l0.87,0.25 2.85,-7.44Z"
            fill="#fff"/>
    <path
            d="M112.25,61.27c0,3.23 1.86,5.58 6.08,7.19 3.22,1.37 3.72,1.74 3.72,3 0,1.61 -1.49,2.36 -4.59,2.36a25.38,25.38 0,0 1,-7.19 -1.12l-1,6.08h0.37l1.37,0.37c0.5,0 1.24,0.12 2.11,0.12a31.72,31.72 0,0 0,4.47 0.25c8.31,0 12.28,-2.73 12.28,-8.68 0,-3.6 -1.61,-5.71 -5.71,-7.32 -3.35,-1.24 -3.72,-1.61 -3.72,-2.85s1.37,-2.11 4,-2.11a50.52,50.52 0,0 1,5.7 0.37l1.12,-6a46.9,46.9 0,0 0,-6.95 -0.5c-8.93,0 -12,4 -12,8.81Z"
            fill="#fff"/>
    <path
            d="M81,79.13H74.54l0.12,-2.73c-2,2.11 -4.71,3.1 -8.31,3.1a6.8,6.8 0,0 1,-7.19 -7.07c0,-6.33 5.08,-10 13.89,-10a31.32,31.32 0,0 1,3.22 0.12,5 5,0 0,0 0.25,-1.61c0,-1.74 -1.37,-2.36 -5.09,-2.36a33.43,33.43 0,0 0,-6.45 0.62l-1.12,0.37 -0.74,0.12 1.12,-5.83a35.89,35.89 0,0 1,9.43 -1.37C80.5,52.47 84,55.07 84,60a27.61,27.61 0,0 1,-0.62 5.21l-1.61,9.3 -0.25,1.61 -0.25,1.36 -0.12,0.87 -0.12,0.74ZM75.29,67.47a10.13,10.13 0,0 0,-1.74 -0.12c-4.47,0 -6.7,1.37 -6.7,4A2.54,2.54 0,0 0,69.58 74c3.23,0 5.58,-2.73 5.71,-6.57Z"
            fill="#fff"/>
    <path
            d="M106.92,78.51a30.13,30.13 0,0 1,-8.06 1.12c-8.81,0 -13.4,-4.09 -13.4,-11.78 0,-8.93 5.83,-15.5 13.77,-15.5 6.45,0 10.54,3.72 10.54,9.43a26.45,26.45 0,0 1,-0.87 6.45H93.15v0.87c0,3 2.23,4.59 6.82,4.59a20.92,20.92 0,0 0,8.19 -1.61l-1.24,6.45ZM102.7,63V61.64c0,-2.11 -1.36,-3.35 -3.72,-3.35S94.76,60 94,63Z"
            fill="#fff"/>
    <path
            d="M191,67.23c-1.24,8.68 -7.32,12.53 -15.38,12.53 -8.8,0 -12.4,-5.33 -12.4,-12 0,-9.18 6.08,-15.5 15.5,-15.5 8.19,0 12.53,5.21 12.53,11.78a13.74,13.74 0,0 1,-0.25 3.23ZM182.81,63.88c0,-2.73 -1.12,-5.21 -4.34,-5.21 -4,0 -6.45,4.71 -6.45,8.93 0,3.47 1.74,5.83 4.46,5.83 1.74,0 5.46,-2.36 6.08,-6.33a13.62,13.62 0,0 0,0.25 -3.22Z"
            fill="#fff"/>
</svg>
