<svg xmlns="http://www.w3.org/2000/svg"
     width="86"
     height="24"
     viewBox="0 0 1000.0 282.0">
    <path
            d="M0,0L93.48,0C106.77,1.3 119.63,7.44 128.34,17.68C133.43,23.51 137.09,30.54 139.16,38C151.56,80.88 163.88,123.79 176.31,166.67C178.43,166.67 180.55,166.66 182.67,166.66C195.18,123.46 207.59,80.23 220.1,37.03C224.37,21.94 236,9.21 250.63,3.57C255.13,1.71 259.95,0.88 264.71,0L358.97,0C358.97,94 358.97,188 358.97,282L269.23,282C269.17,226.44 269.37,170.88 269.14,115.33C267.09,115.32 265.04,115.31 263,115.28C245.54,170.75 228.78,226.46 211.5,282L147.44,282C130.3,226.45 113.32,170.85 96.09,115.34C94.02,115.33 91.95,115.32 89.89,115.3C89.55,170.86 89.84,226.44 89.74,282L0,282L0,0Z"
            fill="#319b42"/>
    <path
            d="M397.44,0L487.18,0C487.2,55.56 487.15,111.12 487.21,166.67C489.33,166.67 491.45,166.66 493.58,166.65C514.78,120.79 535.9,74.89 557.14,29.05C564.77,12.68 581.6,1.54 599.49,0L679.49,0C679.49,94 679.49,188 679.49,282L589.74,282C589.73,226.45 589.76,170.89 589.73,115.34C587.6,115.33 585.48,115.33 583.36,115.34C562.14,161.18 541.05,207.07 519.81,252.9C512.2,269.28 495.39,280.42 477.5,282L397.44,282C397.44,188 397.44,94 397.44,0Z"
            fill="#319b42"/>
    <path
            d="M717.99,128.21C810.12,128.2 902.25,128.19 994.38,128.21C984.02,157.78 958.44,181.5 928.01,189.16C913.71,193.24 898.72,192.12 884.04,192.27C858.52,192.32 833,192.16 807.49,192.35C807.55,222.23 807.5,252.12 807.52,282L717.95,282C717.97,230.74 717.9,179.47 717.99,128.21Z"
            fill="#319b42"/>
    <path
            d="M705.05,0L908.36,0C929.17,1.18 949.61,8.94 965.53,22.46C986.71,40 999.49,66.93 1000,94.4L1000,100.93C999.41,105.72 998.95,110.54 998.06,115.29C948.04,115.33 898.03,115.31 848.01,115.34C811.49,116.5 774.76,102.88 748.06,77.9C725.82,57.45 710.58,29.68 705.05,0Z"
            fill="#0092da"/>
</svg>
